<?xml version="1.0" encoding="UTF-8"?>
<svg id="Layer_1" data-name="Layer 1" xmlns="http://www.w3.org/2000/svg" xmlns:xlink="http://www.w3.org/1999/xlink" viewBox="0 0 27.48 27.48">
  <defs>
    <style>
      .cls-1 {
        fill: none;
      }

      .cls-2 {
        fill: #231f20;
      }

      .cls-3 {
        fill: url(#_10_dpi_40_);
        stroke: #010101;
        stroke-miterlimit: 2.32;
        stroke-width: 2px;
      }
    </style>
    <pattern id="_10_dpi_40_" data-name="10 dpi 40%" x="0" y="0" width="27.36" height="27.36" patternTransform="translate(-1676.57 -1285.22)" patternUnits="userSpaceOnUse" viewBox="0 0 27.36 27.36">
      <g>
        <rect class="cls-1" width="27.36" height="27.36"/>
        <path class="cls-2" d="M24.48,27.36c1.59,0,2.88-1.29,2.88-2.88s-1.29-2.88-2.88-2.88-2.88,1.29-2.88,2.88,1.29,2.88,2.88,2.88Z"/>
        <path class="cls-2" d="M10.08,27.36c1.59,0,2.88-1.29,2.88-2.88s-1.29-2.88-2.88-2.88-2.88,1.29-2.88,2.88,1.29,2.88,2.88,2.88Z"/>
        <path class="cls-2" d="M24.48,12.96c1.59,0,2.88-1.29,2.88-2.88s-1.29-2.88-2.88-2.88-2.88,1.29-2.88,2.88,1.29,2.88,2.88,2.88Z"/>
        <path class="cls-2" d="M10.08,12.96c1.59,0,2.88-1.29,2.88-2.88s-1.29-2.88-2.88-2.88-2.88,1.29-2.88,2.88,1.29,2.88,2.88,2.88Z"/>
        <path class="cls-2" d="M2.88,20.16c1.59,0,2.88-1.29,2.88-2.88s-1.29-2.88-2.88-2.88S0,15.69,0,17.28s1.29,2.88,2.88,2.88Z"/>
        <path class="cls-2" d="M17.28,20.16c1.59,0,2.88-1.29,2.88-2.88s-1.29-2.88-2.88-2.88-2.88,1.29-2.88,2.88,1.29,2.88,2.88,2.88Z"/>
        <path class="cls-2" d="M2.88,5.76c1.59,0,2.88-1.29,2.88-2.88S4.47,0,2.88,0,0,1.29,0,2.88s1.29,2.88,2.88,2.88Z"/>
        <path class="cls-2" d="M17.28,5.76c1.59,0,2.88-1.29,2.88-2.88S18.87,0,17.28,0s-2.88,1.29-2.88,2.88,1.29,2.88,2.88,2.88Z"/>
      </g>
    </pattern>
  </defs>
  <rect class="cls-3" x="1" y="1" width="25.48" height="25.48"/>
</svg>