<?xml version="1.0" encoding="UTF-8"?>
<svg id="Layer_1" data-name="Layer 1" xmlns="http://www.w3.org/2000/svg" xmlns:xlink="http://www.w3.org/1999/xlink" viewBox="0 0 28 31.42">
  <defs>
    <style>
      .cls-1, .cls-2 {
        fill: none;
      }

      .cls-3 {
        fill: url(#output_stripes);
        stroke: #010101;
        stroke-miterlimit: 2.41;
        stroke-width: 1px;
      }

      .cls-2 {
        stroke: #231f20;
        stroke-width: 1.44px;
      }
    </style>
    <pattern id="output_stripes" data-name="output stripes" x="0" y="0" width="72" height="72" patternTransform="translate(-701.21 -1063.38) scale(1.03 1)" patternUnits="userSpaceOnUse" viewBox="0 0 72 72">
      <g>
        <rect class="cls-1" width="72" height="72"/>
        <g>
          <line class="cls-2" x1="71.76" y1="71.9" x2="144.26" y2="71.9"/>
          <line class="cls-2" x1="71.76" y1="62.79" x2="144.26" y2="62.79"/>
          <line class="cls-2" x1="71.76" y1="53.68" x2="144.26" y2="53.68"/>
          <line class="cls-2" x1="71.76" y1="44.56" x2="144.26" y2="44.56"/>
          <line class="cls-2" x1="71.76" y1="35.45" x2="144.26" y2="35.45"/>
          <line class="cls-2" x1="71.76" y1="67.35" x2="144.26" y2="67.35"/>
          <line class="cls-2" x1="71.76" y1="58.23" x2="144.26" y2="58.23"/>
          <line class="cls-2" x1="71.76" y1="49.12" x2="144.26" y2="49.12"/>
          <line class="cls-2" x1="71.76" y1="40.01" x2="144.26" y2="40.01"/>
          <line class="cls-2" x1="71.76" y1="30.89" x2="144.26" y2="30.89"/>
          <line class="cls-2" x1="71.3" y1="26.34" x2="143.8" y2="26.34"/>
          <line class="cls-2" x1="71.3" y1="17.22" x2="143.8" y2="17.22"/>
          <line class="cls-2" x1="71.3" y1="8.11" x2="143.8" y2="8.11"/>
          <line class="cls-2" x1="71.3" y1="21.78" x2="143.8" y2="21.78"/>
          <line class="cls-2" x1="71.3" y1="12.67" x2="143.8" y2="12.67"/>
          <line class="cls-2" x1="71.3" y1="3.55" x2="143.8" y2="3.55"/>
        </g>
        <g>
          <line class="cls-2" x1="-.24" y1="71.9" x2="72.26" y2="71.9"/>
          <line class="cls-2" x1="-.24" y1="62.79" x2="72.26" y2="62.79"/>
          <line class="cls-2" x1="-.24" y1="53.68" x2="72.26" y2="53.68"/>
          <line class="cls-2" x1="-.24" y1="44.56" x2="72.26" y2="44.56"/>
          <line class="cls-2" x1="-.24" y1="35.45" x2="72.26" y2="35.45"/>
          <line class="cls-2" x1="-.24" y1="67.35" x2="72.26" y2="67.35"/>
          <line class="cls-2" x1="-.24" y1="58.23" x2="72.26" y2="58.23"/>
          <line class="cls-2" x1="-.24" y1="49.12" x2="72.26" y2="49.12"/>
          <line class="cls-2" x1="-.24" y1="40.01" x2="72.26" y2="40.01"/>
          <line class="cls-2" x1="-.24" y1="30.89" x2="72.26" y2="30.89"/>
          <line class="cls-2" x1="-.7" y1="26.34" x2="71.8" y2="26.34"/>
          <line class="cls-2" x1="-.7" y1="17.22" x2="71.8" y2="17.22"/>
          <line class="cls-2" x1="-.7" y1="8.11" x2="71.8" y2="8.11"/>
          <line class="cls-2" x1="-.7" y1="21.78" x2="71.8" y2="21.78"/>
          <line class="cls-2" x1="-.7" y1="12.67" x2="71.8" y2="12.67"/>
          <line class="cls-2" x1="-.7" y1="3.55" x2="71.8" y2="3.55"/>
        </g>
        <g>
          <line class="cls-2" x1="-72.24" y1="71.9" x2=".26" y2="71.9"/>
          <line class="cls-2" x1="-72.24" y1="62.79" x2=".26" y2="62.79"/>
          <line class="cls-2" x1="-72.24" y1="53.68" x2=".26" y2="53.68"/>
          <line class="cls-2" x1="-72.24" y1="44.56" x2=".26" y2="44.56"/>
          <line class="cls-2" x1="-72.24" y1="35.45" x2=".26" y2="35.45"/>
          <line class="cls-2" x1="-72.24" y1="67.35" x2=".26" y2="67.35"/>
          <line class="cls-2" x1="-72.24" y1="58.23" x2=".26" y2="58.23"/>
          <line class="cls-2" x1="-72.24" y1="49.12" x2=".26" y2="49.12"/>
          <line class="cls-2" x1="-72.24" y1="40.01" x2=".26" y2="40.01"/>
          <line class="cls-2" x1="-72.24" y1="30.89" x2=".26" y2="30.89"/>
        </g>
        <line class="cls-2" x1="71.76" y1="-.1" x2="144.26" y2="-.1"/>
        <line class="cls-2" x1="-.24" y1="-.1" x2="72.26" y2="-.1"/>
        <line class="cls-2" x1="-72.24" y1="-.1" x2=".26" y2="-.1"/>
      </g>
    </pattern>
  </defs>
  <polygon id="key_output" data-name="key output" class="cls-3" points="27.5 8.16 27.5 23.26 14 30.85 .5 23.26 .5 8.16 14 .58 27.5 8.16"/>
</svg>