<?xml version="1.0" encoding="UTF-8"?>
<svg xmlns="http://www.w3.org/2000/svg" version="1.1" viewBox="0 0 1417.32 504">
  <!-- Generator: Adobe Illustrator 30.1.0, SVG Export Plug-In . SVG Version: 2.1.1 Build 136)  -->
  <defs>
    <style>
      .st0 {
        fill: none;
        stroke: #231f20;
        stroke-miterlimit: 10;
      }

      .st1 {
        fill: #231f20;
        font-family: Swell-Braille, 'Swell Braille';
        font-size: 24px;
      }
    </style>
  </defs>
  <g id="overlay">
    <rect class="st0" y="-.04" width="1417.32" height="504"/>
    <circle class="st0" cx="562.32" cy="340.8" r="14.4"/>
    <circle class="st0" cx="481.5" cy="340.8" r="14.4"/>
    <circle class="st0" cx="740.75" cy="340.8" r="14.4"/>
    <circle class="st0" cx="658.93" cy="340.8" r="14.4"/>
    <circle class="st0" cx="824.58" cy="340.8" r="14.4"/>
    <circle class="st0" cx="51.3" cy="340.8" r="14.4"/>
    <circle class="st0" cx="294.8" cy="340.8" r="14.4"/>
    <circle class="st0" cx="212.61" cy="340.8" r="14.4"/>
    <circle class="st0" cx="133.23" cy="340.8" r="14.4"/>
    <circle class="st0" cx="50.25" cy="82.01" r="14.4"/>
    <circle class="st0" cx="123.95" cy="441.62" r="14.4"/>
    <rect class="st0" x="1343.46" y="411.19" width="43.2" height="56.69"/>
    <rect class="st0" x="1270.84" y="411.19" width="43.2" height="56.69"/>
    <rect class="st0" x="1199.2" y="411.19" width="43.2" height="56.69"/>
    <rect class="st0" x="1101.78" y="411.19" width="43.2" height="56.69"/>
    <rect class="st0" x="1044.14" y="411.19" width="43.2" height="56.69"/>
    <rect class="st0" x="986.49" y="411.19" width="43.2" height="56.69"/>
    <rect class="st0" x="928.85" y="411.19" width="43.2" height="56.69"/>
    <rect class="st0" x="871.21" y="411.19" width="43.2" height="56.69"/>
    <rect class="st0" x="813.57" y="411.19" width="43.2" height="56.69"/>
    <rect class="st0" x="755.93" y="411.19" width="43.2" height="56.69"/>
    <rect class="st0" x="698.29" y="411.19" width="43.2" height="56.69"/>
    <rect class="st0" x="640.64" y="411.19" width="43.2" height="56.69"/>
    <rect class="st0" x="583" y="411.19" width="43.2" height="56.69"/>
    <rect class="st0" x="506.62" y="411.19" width="43.2" height="56.69"/>
    <rect class="st0" x="324.42" y="411.19" width="43.2" height="56.69"/>
    <rect class="st0" x="232.15" y="411.19" width="43.2" height="56.69"/>
    <rect class="st0" x="155.95" y="411.19" width="43.2" height="56.69"/>
    <rect class="st0" x="30.41" y="411.19" width="43.2" height="56.69"/>
    <rect class="st0" x="378.87" y="411.47" width="115.3" height="56.41"/>
    <circle class="st0" cx="1281.85" cy="340.8" r="14.4"/>
    <circle class="st0" cx="1200.02" cy="340.8" r="14.4"/>
    <circle class="st0" cx="1363.67" cy="340.8" r="14.4"/>
    <circle class="st0" cx="562.55" cy="252.67" r="14.4"/>
    <circle class="st0" cx="480.72" cy="252.67" r="14.4"/>
    <circle class="st0" cx="740.98" cy="252.67" r="14.4"/>
    <circle class="st0" cx="658.93" cy="252.67" r="14.4"/>
    <circle class="st0" cx="824.81" cy="252.67" r="14.4"/>
    <circle class="st0" cx="51.82" cy="252.67" r="14.4"/>
    <circle class="st0" cx="301.81" cy="252.67" r="14.4"/>
    <circle class="st0" cx="215.4" cy="252.67" r="14.4"/>
    <circle class="st0" cx="1230.91" cy="252.67" r="14.4"/>
    <circle class="st0" cx="1145.25" cy="252.67" r="14.4"/>
    <circle class="st0" cx="1313.74" cy="252.67" r="14.4"/>
    <circle class="st0" cx="1115.54" cy="340.8" r="14.4"/>
    <circle class="st0" cx="1017.71" cy="340.8" r="14.4"/>
    <circle class="st0" cx="1066.15" cy="252.67" r="14.4"/>
    <circle class="st0" cx="1189.33" cy="82.01" r="14.4"/>
    <circle class="st0" cx="1106.5" cy="82.01" r="14.4"/>
    <circle class="st0" cx="1363.02" cy="167.87" r="14.4"/>
    <circle class="st0" cx="1216.56" cy="168.87" r="14.4"/>
    <circle class="st0" cx="905.55" cy="164.87" r="14.4"/>
    <circle class="st0" cx="560.16" cy="164.87" r="14.4"/>
    <circle class="st0" cx="250.72" cy="167.87" r="14.4"/>
    <circle class="st0" cx="133.37" cy="167.87" r="14.4"/>
    <circle class="st0" cx="52.25" cy="167.87" r="14.4"/>
    <circle class="st0" cx="139.04" cy="82.01" r="14.4"/>
    <circle class="st0" cx="389.62" cy="252.67" r="14.4"/>
    <circle class="st0" cx="308.35" cy="82.01" r="14.4"/>
    <circle class="st0" cx="444.87" cy="82.01" r="14.4"/>
    <circle class="st0" cx="527.69" cy="82.01" r="14.4"/>
    <circle class="st0" cx="646.21" cy="82.01" r="14.4"/>
    <circle class="st0" cx="776.28" cy="82.01" r="14.4"/>
    <circle class="st0" cx="894.61" cy="82.01" r="14.4"/>
    <rect class="st0" x="198.03" y="66.02" width="36.04" height="21.12"/>
    <rect class="st0" x="241.2" y="66.02" width="36.04" height="21.12"/>
    <rect class="st0" x="338.91" y="42.16" width="72.2" height="72.2"/>
    <rect class="st0" x="550.85" y="42.16" width="72.2" height="66.2"/>
    <rect class="st0" x="797.56" y="61.16" width="69.56" height="32.9"/>
    <rect class="st0" x="288.06" y="151.31" width="36.04" height="21.12"/>
    <rect class="st0" x="330.87" y="151.31" width="36.04" height="21.12"/>
    <rect class="st0" x="373.68" y="151.31" width="36.04" height="21.12"/>
    <rect class="st0" x="416.5" y="151.31" width="36.04" height="21.12"/>
    <rect class="st0" x="459.31" y="151.31" width="36.04" height="21.12"/>
    <rect class="st0" x="335.4" y="326.91" width="33.76" height="19.78"/>
    <rect class="st0" x="378.21" y="326.91" width="33.76" height="19.78"/>
    <rect class="st0" x="867.27" y="240.94" width="33.76" height="19.78"/>
    <rect class="st0" x="910.08" y="240.94" width="33.76" height="19.78"/>
    <rect class="st0" x="867.27" y="326.91" width="33.76" height="19.78"/>
    <rect class="st0" x="911.08" y="326.91" width="33.76" height="19.78"/>
    <rect class="st0" x="1046.11" y="327.91" width="33.76" height="19.78"/>
    <rect class="st0" x="679.04" y="153.98" width="33.76" height="19.78"/>
    <rect class="st0" x="721.85" y="153.98" width="33.76" height="19.78"/>
    <rect class="st0" x="764.66" y="153.98" width="33.76" height="19.78"/>
    <rect class="st0" x="807.47" y="153.98" width="33.76" height="19.78"/>
    <rect class="st0" x="699.43" y="66.69" width="33.76" height="19.78"/>
    <rect class="st0" x="944.63" y="153.98" width="33.76" height="19.78"/>
    <rect class="st0" x="963.72" y="40.91" width="14.82" height="71.8"/>
    <rect class="st0" x="942.49" y="40.91" width="14.82" height="71.8"/>
    <rect class="st0" x="1214.4" y="42.16" width="14.82" height="71.8"/>
    <rect class="st0" x="1128.96" y="56.83" width="14.82" height="42.02"/>
    <rect class="st0" x="158.95" y="125.97" width="14.82" height="71.8"/>
    <rect class="st0" x="240.25" y="44.44" width="39.03" height="12.64"/>
    <rect class="st0" x="459.31" y="131.69" width="39.03" height="12.64"/>
    <rect class="st0" x="804.33" y="132.14" width="39.03" height="12.64"/>
    <rect class="st0" x="907.44" y="218.47" width="39.03" height="12.64"/>
    <rect class="st0" x="908.94" y="306.31" width="39.03" height="12.64"/>
    <rect class="st0" x="570.07" y="383.05" width="12.83" height="26.24"/>
    <rect class="st0" x="1032.46" y="67.5" width="36.04" height="21.12"/>
    <rect class="st0" x="468.26" y="66.02" width="36.04" height="21.12"/>
    <rect class="st0" x="115.53" y="241.42" width="33.76" height="17.72"/>
    <rect class="st0" x="73.76" y="155.71" width="33.76" height="17.72"/>
    <rect class="st0" x="987.87" y="154.11" width="33.76" height="19.78"/>
    <rect class="st0" x="1030.68" y="154.11" width="33.76" height="19.78"/>
    <rect class="st0" x="1073.49" y="154.11" width="33.76" height="19.78"/>
    <rect class="st0" x="1116.31" y="154.11" width="33.76" height="19.78"/>
    <rect class="st0" x="1250.11" y="153.98" width="33.76" height="19.78"/>
    <rect class="st0" x="1292.92" y="153.98" width="33.76" height="19.78"/>
    <rect class="st0" x="1297.48" y="67.72" width="33.76" height="19.78"/>
    <rect class="st0" x="1347.3" y="67.72" width="33.76" height="19.78"/>
    <circle class="st0" cx="639.36" cy="163.87" r="14.4"/>
  </g>
  <g id="braille">
    <text class="st1" transform="translate(4.24 22.26)"><tspan x="0" y="0">prophet-#f</tspan></text>
    <text class="st1" transform="translate(124.64 48.91)"><tspan x="0" y="0">4t</tspan></text>
    <text class="st1" transform="translate(414.94 119.97)"><tspan x="0" y="0">mix</tspan></text>
    <text class="st1" transform="translate(470.27 108.36)"><tspan x="0" y="0">sy</tspan></text>
    <text class="st1" transform="translate(691.47 108.36)"><tspan x="0" y="0">tap</tspan></text>
    <text class="st1" transform="translate(513.29 119.97)"><tspan x="0" y="0">#a</tspan></text>
    <text class="st1" transform="translate(631.81 119.97)"><tspan x="0" y="0">#b</tspan></text>
    <text class="st1" transform="translate(750.2 119.97)"><tspan x="0" y="0">bpm</tspan></text>
    <text class="st1" transform="translate(868.13 119.97)"><tspan x="0" y="0">val</tspan></text>
    <text class="st1" transform="translate(1032.46 113.96)"><tspan x="0" y="0">on</tspan></text>
    <text class="st1" transform="translate(982.13 146.34)"><tspan x="0" y="0">at|*</tspan></text>
    <text class="st1" transform="translate(1077.64 119.97)"><tspan x="0" y="0">oct</tspan></text>
    <text class="st1" transform="translate(1174.93 119.97)"><tspan x="0" y="0">md</tspan></text>
    <text class="st1" transform="translate(1314.36 48.91)"><tspan x="0" y="0">seq</tspan></text>
    <text class="st1" transform="translate(1304.5 109.45)"><tspan x="0" y="0">r</tspan></text>
    <text class="st1" transform="translate(1259.75 146.34)"><tspan x="0" y="0">misc</tspan></text>
    <text class="st1" transform="translate(1354.82 109.45)"><tspan x="0" y="0">p</tspan></text>
    <text class="st1" transform="translate(1076.9 48.91)"><tspan x="0" y="0">&gt;p</tspan></text>
    <text class="st1" transform="translate(807.5 48.91)"><tspan x="0" y="0">clk</tspan></text>
    <text class="st1" transform="translate(660.61 146.34)"><tspan x="0" y="0">pmod</tspan></text>
    <text class="st1" transform="translate(426.67 48.91)"><tspan x="0" y="0">fx</tspan></text>
    <text class="st1" transform="translate(22.62 119.97)"><tspan x="0" y="0">mvol</tspan></text>
    <text class="st1" transform="translate(73.76 149.47)"><tspan x="0" y="0">sy</tspan></text>
    <text class="st1" transform="translate(22.62 203.77)"><tspan x="0" y="0">frq</tspan></text>
    <text class="st1" transform="translate(100.55 203.77)"><tspan x="0" y="0">shp</tspan></text>
    <text class="st1" transform="translate(139.04 232.11)"><tspan x="0" y="0">osc#a</tspan></text>
    <text class="st1" transform="translate(139.04 320.63)"><tspan x="0" y="0">osc#b</tspan></text>
    <text class="st1" transform="translate(28.81 293.73)"><tspan x="0" y="0">frq</tspan></text>
    <text class="st1" transform="translate(113.57 293.73)"><tspan x="0" y="0">sy</tspan></text>
    <text class="st1" transform="translate(191.18 293.73)"><tspan x="0" y="0">shp</tspan></text>
    <text class="st1" transform="translate(280.41 293.73)"><tspan x="0" y="0">pw</tspan></text>
    <text class="st1" transform="translate(28.65 383.05)"><tspan x="0" y="0">frq</tspan></text>
    <text class="st1" transform="translate(28.65 493.82)"><tspan x="0" y="0">hld</tspan></text>
    <text class="st1" transform="translate(113.45 493.82)"><tspan x="0" y="0">r</tspan></text>
    <text class="st1" transform="translate(153.05 493.82)"><tspan x="0" y="0">gld</tspan></text>
    <text class="st1" transform="translate(228.01 493.82)"><tspan x="0" y="0">uni</tspan></text>
    <text class="st1" transform="translate(319.81 493.82)"><tspan x="0" y="0">bnk</tspan></text>
    <text class="st1" transform="translate(502.67 493.82)"><tspan x="0" y="0">ten</tspan></text>
    <text class="st1" transform="translate(644.74 493.82)"><tspan x="0" y="0">#a</tspan></text>
    <text class="st1" transform="translate(584.84 493.82)"><tspan x="0" y="0">#j</tspan></text>
    <text class="st1" transform="translate(698.29 493.82)"><tspan x="0" y="0">#b</tspan></text>
    <text class="st1" transform="translate(761.26 493.82)"><tspan x="0" y="0">#c</tspan></text>
    <text class="st1" transform="translate(813.57 493.82)"><tspan x="0" y="0">#d</tspan></text>
    <text class="st1" transform="translate(871.21 493.82)"><tspan x="0" y="0">#e</tspan></text>
    <text class="st1" transform="translate(934.19 493.82)"><tspan x="0" y="0">#f</tspan></text>
    <text class="st1" transform="translate(986.49 493.82)"><tspan x="0" y="0">#g</tspan></text>
    <text class="st1" transform="translate(1044.14 493.82)"><tspan x="0" y="0">#h</tspan></text>
    <text class="st1" transform="translate(1101.78 493.82)"><tspan x="0" y="0">#i</tspan></text>
    <text class="st1" transform="translate(1193.2 493.82)"><tspan x="0" y="0">wri</tspan></text>
    <text class="st1" transform="translate(1266.04 493.82)"><tspan x="0" y="0">glo</tspan></text>
    <text class="st1" transform="translate(1340.39 493.82)"><tspan x="0" y="0">pre</tspan></text>
    <text class="st1" transform="translate(108.53 383.05)"><tspan x="0" y="0">f9e</tspan></text>
    <text class="st1" transform="translate(191.02 383.05)"><tspan x="0" y="0">shp</tspan></text>
    <text class="st1" transform="translate(282.25 383.05)"><tspan x="0" y="0">pw</tspan></text>
    <text class="st1" transform="translate(335.4 383.05)"><tspan x="0" y="0">lf</tspan></text>
    <text class="st1" transform="translate(388.87 383.05)"><tspan x="0" y="0">k</tspan></text>
    <text class="st1" transform="translate(455.1 383.05)"><tspan x="0" y="0">sub</tspan></text>
    <text class="st1" transform="translate(538.56 383.05)"><tspan x="0" y="0">noi</tspan></text>
    <text class="st1" transform="translate(362.26 293.73)"><tspan x="0" y="0">amt</tspan></text>
    <text class="st1" transform="translate(437.39 293.73)"><tspan x="0" y="0">osc#a</tspan></text>
    <text class="st1" transform="translate(526.24 293.73)"><tspan x="0" y="0">osc#b</tspan></text>
    <text class="st1" transform="translate(634.33 293.73)"><tspan x="0" y="0">cut</tspan></text>
    <text class="st1" transform="translate(716.64 293.73)"><tspan x="0" y="0">res</tspan></text>
    <text class="st1" transform="translate(799.97 293.73)"><tspan x="0" y="0">env</tspan></text>
    <text class="st1" transform="translate(877.58 293.73)"><tspan x="0" y="0">v</tspan></text>
    <text class="st1" transform="translate(916.15 293.73)"><tspan x="0" y="0">k</tspan></text>
    <text class="st1" transform="translate(636.62 383.05)"><tspan x="0" y="0">cut</tspan></text>
    <text class="st1" transform="translate(718.93 383.05)"><tspan x="0" y="0">res</tspan></text>
    <text class="st1" transform="translate(802.26 383.05)"><tspan x="0" y="0">env</tspan></text>
    <text class="st1" transform="translate(986.49 383.05)"><tspan x="0" y="0">env</tspan></text>
    <text class="st1" transform="translate(1056.11 383.05)"><tspan x="0" y="0">v</tspan></text>
    <text class="st1" transform="translate(879.87 383.05)"><tspan x="0" y="0">v</tspan></text>
    <text class="st1" transform="translate(918.44 383.05)"><tspan x="0" y="0">k</tspan></text>
    <text class="st1" transform="translate(1087.34 320.63)"><tspan x="0" y="0">a env</tspan></text>
    <text class="st1" transform="translate(661.68 320.63)"><tspan x="0" y="0">lpf</tspan></text>
    <text class="st1" transform="translate(1057.47 293.73)"><tspan x="0" y="0">a</tspan></text>
    <text class="st1" transform="translate(1137.95 293.73)"><tspan x="0" y="0">d</tspan></text>
    <text class="st1" transform="translate(1220.32 293.73)"><tspan x="0" y="0">s</tspan></text>
    <text class="st1" transform="translate(1303.65 293.73)"><tspan x="0" y="0">r</tspan></text>
    <text class="st1" transform="translate(1107.82 383.05)"><tspan x="0" y="0">a</tspan></text>
    <text class="st1" transform="translate(1188.29 383.05)"><tspan x="0" y="0">d</tspan></text>
    <text class="st1" transform="translate(1270.67 383.05)"><tspan x="0" y="0">s</tspan></text>
    <text class="st1" transform="translate(1353.99 383.05)"><tspan x="0" y="0">r</tspan></text>
    <text class="st1" transform="translate(224.24 203.77)"><tspan x="0" y="0">amt</tspan></text>
    <text class="st1" transform="translate(283.41 203.76)"><tspan x="0" y="0">f#a</tspan></text>
    <text class="st1" transform="translate(335.26 203.77)"><tspan x="0" y="0">#b</tspan></text>
    <text class="st1" transform="translate(354.79 232.11)"><tspan x="0" y="0">slop</tspan></text>
    <text class="st1" transform="translate(488.44 232.11)"><tspan x="0" y="0">mix}</tspan></text>
    <text class="st1" transform="translate(545.76 203.77)"><tspan x="0" y="0">fe</tspan></text>
    <text class="st1" transform="translate(615.02 203.76)"><tspan x="0" y="0">o#b</tspan></text>
    <text class="st1" transform="translate(677.33 203.77)"><tspan x="0" y="0">fr</tspan></text>
    <text class="st1" transform="translate(721.85 203.77)"><tspan x="0" y="0">sh</tspan></text>
    <text class="st1" transform="translate(764.66 203.77)"><tspan x="0" y="0">pw</tspan></text>
    <text class="st1" transform="translate(807.47 203.77)"><tspan x="0" y="0">fi</tspan></text>
    <text class="st1" transform="translate(877.96 203.77)"><tspan x="0" y="0">amt</tspan></text>
    <text class="st1" transform="translate(936.52 203.76)"><tspan x="0" y="0">f#a</tspan></text>
    <text class="st1" transform="translate(987.87 203.77)"><tspan x="0" y="0">#b</tspan></text>
    <text class="st1" transform="translate(1032.63 203.77)"><tspan x="0" y="0">lf</tspan></text>
    <text class="st1" transform="translate(1073.49 203.77)"><tspan x="0" y="0">am</tspan></text>
    <text class="st1" transform="translate(1116.31 203.77)"><tspan x="0" y="0">fi</tspan></text>
    <text class="st1" transform="translate(1197.06 203.77)"><tspan x="0" y="0">pan</tspan></text>
    <text class="st1" transform="translate(1334.19 203.77)"><tspan x="0" y="0">pvol</tspan></text>
    <text class="st1" transform="translate(1066.15 232.11)"><tspan x="0" y="0">f env</tspan></text>
    <text class="st1" transform="translate(672.82 232.11)"><tspan x="0" y="0">hpf</tspan></text>
    <text class="st1" transform="translate(414.4 203.77)"><tspan x="0" y="0">am</tspan></text>
    <text class="st1" transform="translate(109.55 119.97)"><tspan x="0" y="0">amt</tspan></text>
    <text class="st1" transform="translate(198.03 119.97)"><tspan x="0" y="0">on</tspan></text>
    <text class="st1" transform="translate(244.2 119.97)"><tspan x="0" y="0">ab</tspan></text>
    <text class="st1" transform="translate(287.95 119.97)"><tspan x="0" y="0">ty</tspan></text>
    <text class="st1" transform="translate(304.25 146.34)"><tspan x="0" y="0">lfo</tspan></text>
    <text class="st1" transform="translate(373.68 203.77)"><tspan x="0" y="0">pw</tspan></text>
    <text class="st1" transform="translate(459.31 203.77)"><tspan x="0" y="0">fi</tspan></text>
  </g>
</svg>