<?xml version="1.0" encoding="UTF-8"?>
<svg xmlns="http://www.w3.org/2000/svg" version="1.1" viewBox="0 0 1719.79 898.61">
  <!-- Generator: Adobe Illustrator 30.1.0, SVG Export Plug-In . SVG Version: 2.1.1 Build 136)  -->
  <defs>
    <style>
      .st0 {
        stroke: #231f20;
      }

      .st0, .st1, .st2 {
        fill: none;
        stroke-miterlimit: 10;
      }

      .st1 {
        stroke-width: 2px;
      }

      .st1, .st2 {
        stroke: #000100;
      }

      .st3 {
        fill: #231f20;
        font-family: Swell-Braille, 'Swell Braille';
        font-size: 24px;
      }
    </style>
  </defs>
  <g id="overlay">
    <circle class="st0" cx="129" cy="69.09" r="15.59"/>
    <circle class="st0" cx="40.99" cy="69.09" r="15.59"/>
    <rect class="st2" x="206.28" y="45.6" width="17.01" height="46.99"/>
    <rect class="st2" x="319.82" y="-10.28" width="14.17" height="158.74" rx="4.2" ry="4.2" transform="translate(396 -257.81) rotate(90)"/>
    <rect class="st2" x="319.82" y="33.79" width="14.17" height="158.74" rx="4.2" ry="4.2" transform="translate(440.07 -213.74) rotate(90)"/>
    <rect class="st2" x="517.99" y="-10.28" width="14.17" height="158.74" rx="4.2" ry="4.2" transform="translate(594.17 -455.98) rotate(90)"/>
    <rect class="st2" x="517.99" y="33.79" width="14.17" height="158.74" rx="4.2" ry="4.2" transform="translate(638.24 -411.91) rotate(90)"/>
    <rect class="st2" x="716.02" y="-10.28" width="14.17" height="158.74" rx="4.2" ry="4.2" transform="translate(792.2 -654.01) rotate(90)"/>
    <rect class="st2" x="716.02" y="33.79" width="14.17" height="158.74" rx="4.2" ry="4.2" transform="translate(836.27 -609.95) rotate(90)"/>
    <rect class="st2" x="980.07" y="-9.69" width="14.17" height="158.74" rx="4.2" ry="4.2" transform="translate(1056.84 -917.47) rotate(90)"/>
    <rect class="st2" x="980.07" y="34.38" width="14.17" height="158.74" rx="4.2" ry="4.2" transform="translate(1100.91 -873.4) rotate(90)"/>
    <rect class="st2" x="980.07" y="77.86" width="14.17" height="158.74" rx="4.2" ry="4.2" transform="translate(1144.39 -829.92) rotate(90)"/>
    <rect class="st2" x="716.02" y="77.86" width="14.17" height="158.74" rx="4.2" ry="4.2" transform="translate(880.34 -565.88) rotate(90)"/>
    <rect class="st2" x="517.99" y="77.86" width="14.17" height="158.74" rx="4.2" ry="4.2" transform="translate(682.31 -367.84) rotate(90)"/>
    <rect class="st2" x="1420.15" y="-10.28" width="14.17" height="158.74" rx="4.2" ry="4.2" transform="translate(1496.33 -1358.14) rotate(90)"/>
    <rect class="st2" x="1596.16" y="33.79" width="14.17" height="158.74" rx="4.2" ry="4.2" transform="translate(1716.41 -1490.08) rotate(90)"/>
    <rect class="st2" x="782.03" y="589.02" width="14.17" height="158.74" rx="4.2" ry="4.2" transform="translate(1457.51 -120.72) rotate(90)"/>
    <rect class="st2" x="782.03" y="638.09" width="14.17" height="158.74" rx="4.2" ry="4.2" transform="translate(1506.57 -71.65) rotate(90)"/>
    <rect class="st2" x="782.03" y="687.16" width="14.17" height="158.74" rx="4.2" ry="4.2" transform="translate(1555.64 -22.58) rotate(90)"/>
    <rect class="st2" x="782.03" y="736.23" width="14.17" height="158.74" rx="4.2" ry="4.2" transform="translate(1604.71 26.48) rotate(90)"/>
    <circle class="st0" cx="217.01" cy="179.18" r="15.59"/>
    <circle class="st0" cx="217.01" cy="242.88" r="15.59"/>
    <circle class="st0" cx="393.04" cy="200.99" r="15.59"/>
    <circle class="st0" cx="393.04" cy="284.77" r="15.59"/>
    <circle class="st0" cx="568.69" cy="200.99" r="15.59"/>
    <circle class="st0" cx="568.69" cy="284.77" r="15.59"/>
    <circle class="st0" cx="612.72" cy="200.99" r="15.59"/>
    <circle class="st0" cx="612.72" cy="284.77" r="15.59"/>
    <circle class="st0" cx="789.11" cy="200.99" r="15.59"/>
    <circle class="st0" cx="789.12" cy="284.77" r="15.59"/>
    <circle class="st0" cx="1141.17" cy="242.88" r="15.59"/>
    <circle class="st0" cx="1317.22" cy="267.05" r="15.59"/>
    <circle class="st0" cx="1493.25" cy="242.88" r="15.59"/>
    <circle class="st0" cx="1537.24" cy="284.77" r="15.59"/>
    <circle class="st0" cx="1581.26" cy="284.77" r="15.59"/>
    <circle class="st0" cx="1581.24" cy="157.23" r="15.59"/>
    <circle class="st0" cx="1537.24" cy="157.23" r="15.59"/>
    <circle class="st0" cx="1669.28" cy="157.23" r="15.59"/>
    <circle class="st0" cx="1559.26" cy="69.09" r="15.59"/>
    <circle class="st0" cx="1647.27" cy="69.68" r="15.59"/>
    <rect class="st2" x="1310.13" y="54.69" width="14.17" height="158.74" rx="4.2" ry="4.2"/>
    <rect class="st2" x="1266.12" y="54.69" width="14.17" height="158.74" rx="4.2" ry="4.2"/>
    <rect class="st2" x="1222.1" y="54.69" width="14.17" height="158.74" rx="4.2" ry="4.2"/>
    <rect class="st2" x="1178.1" y="54.69" width="14.17" height="158.74" rx="4.2" ry="4.2"/>
    <rect class="st2" x="1618.18" y="182.63" width="14.17" height="158.74" rx="4.2" ry="4.2"/>
    <rect class="st2" x="1662.19" y="182.63" width="14.17" height="158.74" rx="4.2" ry="4.2"/>
    <circle class="st0" cx="85" cy="417.22" r="15.59"/>
    <rect class="st2" x="33.91" y="337.85" width="14.17" height="158.74" rx="4.2" ry="4.2"/>
    <rect class="st2" x="121.92" y="337.85" width="14.17" height="158.74" rx="4.2" ry="4.2"/>
    <rect class="st2" x="209.93" y="337.85" width="14.17" height="158.74" rx="4.2" ry="4.2"/>
    <rect class="st2" x="297.95" y="337.85" width="14.17" height="158.74" rx="4.2" ry="4.2"/>
    <rect class="st2" x="252.62" y="454.75" width="17.01" height="46.99"/>
    <rect class="st2" x="428.56" y="454.75" width="17.01" height="46.99"/>
    <rect class="st2" x="341.96" y="337.85" width="14.17" height="158.74" rx="4.2" ry="4.2"/>
    <rect class="st2" x="385.96" y="337.85" width="14.17" height="158.74" rx="4.2" ry="4.2"/>
    <rect class="st2" x="473.98" y="337.85" width="14.17" height="158.74" rx="4.2" ry="4.2"/>
    <rect class="st2" x="517.98" y="337.85" width="14.17" height="158.74" rx="4.2" ry="4.2"/>
    <rect class="st2" x="561.61" y="337.85" width="14.17" height="158.74" rx="4.2" ry="4.2"/>
    <rect class="st2" x="605.64" y="337.85" width="14.17" height="158.74" rx="4.2" ry="4.2"/>
    <rect class="st2" x="694.02" y="337.85" width="14.17" height="158.74" rx="4.2" ry="4.2"/>
    <rect class="st2" x="738.03" y="337.85" width="14.17" height="158.74" rx="4.2" ry="4.2"/>
    <rect class="st2" x="782.03" y="337.85" width="14.17" height="158.74" rx="4.2" ry="4.2"/>
    <rect class="st2" x="826.04" y="337.85" width="14.17" height="158.74" rx="4.2" ry="4.2"/>
    <rect class="st2" x="870.05" y="337.85" width="14.17" height="158.74" rx="4.2" ry="4.2"/>
    <rect class="st2" x="914.06" y="337.85" width="14.17" height="158.74" rx="4.2" ry="4.2"/>
    <rect class="st2" x="958.07" y="337.85" width="14.17" height="158.74" rx="4.2" ry="4.2"/>
    <rect class="st2" x="1002.07" y="337.85" width="14.17" height="158.74" rx="4.2" ry="4.2"/>
    <rect class="st2" x="1090.09" y="337.85" width="14.17" height="158.74" rx="4.2" ry="4.2"/>
    <rect class="st2" x="1134.1" y="337.85" width="14.17" height="158.74" rx="4.2" ry="4.2"/>
    <rect class="st2" x="1178.11" y="337.85" width="14.17" height="158.74" rx="4.2" ry="4.2"/>
    <rect class="st2" x="1310.13" y="337.85" width="14.17" height="158.74" rx="4.2" ry="4.2"/>
    <rect class="st2" x="1354.14" y="337.85" width="14.17" height="158.74" rx="4.2" ry="4.2"/>
    <rect class="st2" x="1398.14" y="337.85" width="14.17" height="158.74" rx="4.2" ry="4.2"/>
    <rect class="st2" x="1442.15" y="337.85" width="14.17" height="158.74" rx="4.2" ry="4.2"/>
    <rect class="st2" x="1486.16" y="337.85" width="14.17" height="158.74" rx="4.2" ry="4.2"/>
    <rect class="st2" x="1530.17" y="337.85" width="14.17" height="158.74" rx="4.2" ry="4.2"/>
    <rect class="st2" x="1574.18" y="337.85" width="14.17" height="158.74" rx="4.2" ry="4.2"/>
    <circle class="st0" cx="40.99" cy="541.9" r="15.59"/>
    <circle class="st0" cx="129.5" cy="541.9" r="15.59"/>
    <circle class="st0" cx="217.02" cy="541.9" r="15.59"/>
    <circle class="st0" cx="261.12" cy="542.03" r="15.59"/>
    <circle class="st0" cx="304.48" cy="542.03" r="15.59"/>
    <circle class="st0" cx="349.05" cy="542.03" r="15.59"/>
    <circle class="st0" cx="393.06" cy="542.03" r="15.59"/>
    <circle class="st0" cx="437.06" cy="542.03" r="15.59"/>
    <circle class="st0" cx="481.07" cy="542.03" r="15.59"/>
    <circle class="st0" cx="525.4" cy="542.03" r="15.59"/>
    <circle class="st0" cx="568.69" cy="542.03" r="15.59"/>
    <circle class="st0" cx="612.72" cy="542.03" r="15.59"/>
    <circle class="st0" cx="657.1" cy="542.03" r="15.59"/>
    <circle class="st0" cx="701.1" cy="542.03" r="15.59"/>
    <circle class="st0" cx="745.11" cy="542.03" r="15.59"/>
    <circle class="st0" cx="788.93" cy="542.03" r="15.59"/>
    <circle class="st0" cx="832.96" cy="542.03" r="15.59"/>
    <circle class="st0" cx="877.33" cy="542.03" r="15.59"/>
    <circle class="st0" cx="921.34" cy="542.03" r="15.59"/>
    <circle class="st0" cx="965.35" cy="542.03" r="15.59"/>
    <circle class="st0" cx="1008.96" cy="542.03" r="15.59"/>
    <circle class="st0" cx="1053" cy="542.03" r="15.59"/>
    <circle class="st0" cx="1097.37" cy="542.03" r="15.59"/>
    <circle class="st0" cx="1141.38" cy="542.03" r="15.59"/>
    <circle class="st0" cx="1229.2" cy="542.03" r="15.59"/>
    <circle class="st0" cx="1272.82" cy="542.03" r="15.59"/>
    <circle class="st0" cx="1316.85" cy="542.03" r="15.59"/>
    <circle class="st0" cx="1361.23" cy="542.03" r="15.59"/>
    <circle class="st0" cx="1405.23" cy="542.03" r="15.59"/>
    <circle class="st0" cx="1449.23" cy="542.03" r="15.59"/>
    <circle class="st0" cx="1492.84" cy="542.03" r="15.59"/>
    <circle class="st0" cx="1536.88" cy="542.03" r="15.59"/>
    <circle class="st0" cx="1581.25" cy="542.03" r="15.59"/>
    <circle class="st0" cx="1625.26" cy="542.03" r="15.59"/>
    <circle class="st0" cx="1669.28" cy="478.24" r="15.59"/>
    <rect class="st2" x="1655.1" y="671.25" width="28.35" height="70.87"/>
    <circle class="st0" cx="1669.15" cy="805.12" r="15.59"/>
    <circle class="st0" cx="40.99" cy="642.39" r="15.59"/>
    <circle class="st0" cx="40.99" cy="702.12" r="15.59"/>
    <circle class="st0" cx="40.99" cy="740.21" r="15.59"/>
    <circle class="st0" cx="40.99" cy="778.31" r="15.59"/>
    <circle class="st0" cx="40.99" cy="816.4" r="15.59"/>
    <rect class="st1" x="113.91" y="646.4" width="273.79" height="191.19" rx="18" ry="18"/>
    <rect class="st2" x="451.98" y="657.94" width="14.17" height="158.74" rx="4.2" ry="4.2"/>
    <rect class="st2" x="518.31" y="657.93" width="14.17" height="158.74" rx="4.2" ry="4.2"/>
    <rect class="st2" x="561.61" y="657.94" width="14.17" height="158.74" rx="4.2" ry="4.2"/>
    <circle class="st0" cx="613.07" cy="737.31" r="15.59"/>
    <circle class="st0" cx="657.1" cy="668.39" r="15.59"/>
    <circle class="st0" cx="657.1" cy="717.46" r="15.59"/>
    <circle class="st0" cx="657.1" cy="766.53" r="15.59"/>
    <circle class="st0" cx="657.1" cy="814.55" r="15.59"/>
    <circle class="st0" cx="921.14" cy="643.86" r="15.59"/>
    <circle class="st0" cx="1009.16" cy="643.86" r="15.59"/>
    <circle class="st0" cx="965.35" cy="668.39" r="15.59"/>
    <circle class="st0" cx="921.34" cy="692.93" r="15.59"/>
    <circle class="st0" cx="921.14" cy="742" r="15.59"/>
    <circle class="st0" cx="1009.16" cy="741.08" r="15.59"/>
    <circle class="st0" cx="965.15" cy="766.53" r="15.59"/>
    <circle class="st0" cx="1008.96" cy="789.38" r="15.59"/>
    <circle class="st0" cx="965.35" cy="814.55" r="15.59"/>
    <circle class="st0" cx="1008.96" cy="836.76" r="15.59"/>
    <circle class="st0" cx="1185.22" cy="668.39" r="15.59"/>
    <circle class="st0" cx="1185.19" cy="717.46" r="15.59"/>
    <circle class="st0" cx="1185.19" cy="816.68" r="15.59"/>
    <rect class="st2" x="1068.27" y="657.94" width="14.17" height="158.74" rx="4.2" ry="4.2"/>
    <rect class="st2" x="1109.51" y="657.93" width="14.17" height="158.74" rx="4.2" ry="4.2"/>
    <rect class="st2" x="1244.12" y="657.94" width="14.17" height="158.74" rx="4.2" ry="4.2"/>
    <rect class="st1" x="1320.98" y="646.52" width="275.86" height="191.19" rx="18" ry="18"/>
    <rect class="st2" x="648.41" y="455.8" width="17.01" height="46.99"/>
    <rect class="st2" x="1220.68" y="455.8" width="17.01" height="46.99"/>
    <circle class="st0" cx="1273.21" cy="356.84" r="15.59"/>
    <circle class="st0" cx="1229.2" cy="356.84" r="15.59"/>
    <path class="st0" d="M30.47,864.55c0,2.74,2.22,4.96,4.96,4.96s4.96-2.22,4.96-4.96-2.22-4.96-4.96-4.96-4.96,2.22-4.96,4.96Z"/>
    <path class="st0" d="M30.47,31.17c0,2.74,2.22,4.96,4.96,4.96s4.96-2.22,4.96-4.96-2.22-4.96-4.96-4.96-4.96,2.22-4.96,4.96Z"/>
    <path class="st0" d="M1674.57,31.17c0,2.74,2.22,4.96,4.96,4.96s4.96-2.22,4.96-4.96-2.22-4.96-4.96-4.96-4.96,2.22-4.96,4.96Z"/>
    <path class="st0" d="M1669.28,562.35c-4.11,0-7.44,3.33-7.44,7.44s3.33,7.44,7.44,7.44,7.44-3.33,7.44-7.44-3.33-7.44-7.44-7.44Z"/>
    <path class="st0" d="M1674.57,864.55c0,2.74,2.22,4.96,4.96,4.96s4.96-2.22,4.96-4.96-2.22-4.96-4.96-4.96-4.96,2.22-4.96,4.96Z"/>
    <rect class="st2" x="164.3" y="518.41" width="17.01" height="46.99"/>
    <circle class="st0" cx="431.95" cy="50.67" r="11.34"/>
    <circle class="st0" cx="855.13" cy="51.25" r="11.34"/>
    <circle class="st0" cx="1119.18" cy="51.25" r="11.34"/>
    <circle class="st0" cx="429.66" cy="781.05" r="11.34"/>
    <circle class="st0" cx="1280.99" cy="780.73" r="11.34"/>
    <rect class="st0" x="7.09" y="11.32" width="1700.79" height="873.07"/>
  </g>
  <g id="dividers">
    <text class="st3" transform="translate(224.1 39.92) rotate(90)"><tspan x="0" y="0">aaaaaaaaaaaaaaaaaaaaaaaaaaaaaaa</tspan></text>
    <text class="st3" transform="translate(400.13 39.91) rotate(90)"><tspan x="0" y="0">aaaaaaaaaaaaaaaaaaaaaaaaaaaaaaa</tspan></text>
    <text class="st3" transform="translate(619.81 39.91) rotate(90)"><tspan x="0" y="0">aaaaaaaaaaaaaaaaaaaaaaaaaaaaaaa</tspan></text>
    <text class="st3" transform="translate(796.21 39.91) rotate(90)"><tspan x="0" y="0">aaaaaaaaaaaaaaaaaaaaaaaaaaaaaaa</tspan></text>
    <text class="st3" transform="translate(1148.27 39.92) rotate(90)"><tspan x="0" y="0">aaaaaaaaaaaaaaaaaaaaaaaaaaaaaaa</tspan></text>
    <text class="st3" transform="translate(1324.3 39.91) rotate(90)"><tspan x="0" y="0">aaaaaaaaaaaaaaaaaaaaaaaaaaaaaaa</tspan></text>
    <text class="st3" transform="translate(1501.6 39.91) rotate(90)"><tspan x="0" y="0">aaaaaaaaaaaaaaaaaaaaaaaaaaaaaaa</tspan></text>
    <text class="st3" transform="translate(476.98 611.39) rotate(90)"><tspan x="0" y="0">aaaaaaaaaaaaaaa</tspan></text>
    <text class="st3" transform="translate(620.81 611.39) rotate(90)"><tspan x="0" y="0">aaaaaaaaaaaaaaa</tspan></text>
    <text class="st3" transform="translate(972.24 611.39) rotate(90)"><tspan x="0" y="0">aaaaaaaaaaaaaaa</tspan></text>
    <text class="st3" transform="translate(1209.61 611.39) rotate(90)"><tspan x="0" y="0">aaaaaaaaaaaaaaa</tspan></text>
    <text class="st3" transform="translate(33.47 605.36)"><tspan x="0" y="0">aaaaaaaaaaaaaaaaaaaaaaaaaaaaaaaaaaaaaaaaaaaaaaaaaaaaaaaaaaaaaaaaaaaaaaaaaaaaaaaaaaaaaaaaaaaaaaa</tspan></text>
  </g>
  <g id="braille">
    <text class="st3" transform="translate(669.05 258.47)"><tspan x="0" y="0">vco-c</tspan></text>
    <text class="st3" transform="translate(936.93 258.47)"><tspan x="0" y="0">vcf</tspan></text>
    <text class="st3" transform="translate(1213.61 258.47)"><tspan x="0" y="0">adsr</tspan></text>
    <text class="st3" transform="translate(1220.68 422.08)"><tspan x="0" y="0">ar</tspan></text>
    <text class="st3" transform="translate(1389.64 157.23)"><tspan x="0" y="0">vca</tspan></text>
    <text class="st3" transform="translate(1603.25 388.21)"><tspan x="0" y="0">reverb</tspan></text>
    <text class="st3" transform="translate(1530.17 325.11)"><tspan x="0" y="0">mixer</tspan></text>
    <text class="st3" transform="translate(1559.26 39.91)"><tspan x="0" y="0">output</tspan></text>
    <text class="st3" transform="translate(445.7 258.47)"><tspan x="0" y="0">vco-b</tspan></text>
    <text class="st3" transform="translate(261.12 258.47)"><tspan x="0" y="0">vco-a</tspan></text>
    <text class="st3" transform="translate(85 126.37)"><tspan x="0" y="0">preamp</tspan></text>
    <text class="st3" transform="translate(106.92 284.77)"><tspan x="0" y="0">ringmod</tspan></text>
    <text class="st3" transform="translate(30.47 318.89)"><tspan x="0" y="0">envfoll</tspan></text>
    <text class="st3" transform="translate(48.08 859.59)"><tspan x="0" y="0">mult</tspan></text>
    <text class="st3" transform="translate(437.06 859.59)"><tspan x="0" y="0">ls</tspan></text>
    <text class="st3" transform="translate(504.85 859.59)"><tspan x="0" y="0">noise</tspan></text>
    <text class="st3" transform="translate(709.74 859.59)"><tspan x="0" y="0">volt-proc</tspan></text>
    <text class="st3" transform="translate(1063.98 859.59)"><tspan x="0" y="0">sah</tspan></text>
    <text class="st3" transform="translate(1237.69 859.59)"><tspan x="0" y="0">rs</tspan></text>
    <text class="st3" transform="translate(1619.29 859.59)"><tspan x="0" y="0">ph</tspan></text>
    <text class="st3" transform="translate(1614.76 652.8)"><tspan x="0" y="0">power</tspan></text>
  </g>
</svg>